<?xml version="1.0" standalone="no"?>
<!DOCTYPE svg PUBLIC "-//W3C//DTD SVG 20010904//EN"
 "http://www.w3.org/TR/2001/REC-SVG-20010904/DTD/svg10.dtd">
<svg version="1.0" xmlns="http://www.w3.org/2000/svg"
 width="190.000000pt" height="36.000000pt" viewBox="0 0 190.000000 36.000000"
 preserveAspectRatio="xMidYMid meet">

<g transform="translate(0.000000,36.000000) scale(0.100000,-0.100000)"
fill="#000000" stroke="none">
<path d="M0 180 l0 -180 96 0 96 0 -6 26 c-5 17 -3 23 4 19 5 -3 10 -3 10 0 0
16 -124 295 -131 295 -5 0 3 -25 16 -57 34 -75 26 -78 -10 -3 -19 39 -35 60
-49 63 -12 2 17 4 64 4 47 0 70 -2 53 -4 -18 -2 -33 -6 -33 -7 0 -11 33 -93
65 -164 l39 -84 14 29 c14 25 92 212 92 219 0 2 -17 5 -37 7 -21 2 -4 4 37 4
41 0 65 -2 53 -4 -12 -2 -26 -10 -31 -16 -9 -11 -106 -234 -132 -302 l-10 -25
850 0 850 0 0 48 -1 47 -29 -35 -29 -35 27 -6 c24 -6 22 -7 -11 -8 -34 -1 -37
1 -28 17 5 10 17 24 25 32 24 19 19 33 -9 28 -14 -3 -25 -1 -25 3 0 5 18 9 40
9 l40 0 0 130 0 130 -267 0 -268 -1 37 -19 c98 -52 129 -180 61 -260 -42 -51
-97 -73 -166 -68 -32 2 -62 9 -65 14 -4 5 -14 10 -22 12 -41 9 -90 89 -90 147
0 39 27 100 57 127 10 9 34 24 53 32 32 14 6 15 -300 14 -184 0 -323 -3 -307
-5 24 -4 27 -8 26 -41 -1 -36 -1 -36 -10 -11 -16 45 -77 52 -114 15 -34 -34
-23 -59 50 -110 69 -48 91 -81 81 -119 -8 -32 -43 -70 -56 -62 -6 4 -10 1 -10
-4 0 -7 -26 -11 -65 -11 l-65 0 1 38 c1 24 3 29 6 14 6 -29 46 -45 90 -37 36
6 42 14 54 59 8 29 8 29 6 -8 -3 -33 -2 -36 10 -20 28 38 12 69 -62 124 -30
22 -63 52 -72 67 -16 24 -16 27 0 55 9 16 12 26 6 22 -6 -3 -17 -20 -25 -38
-7 -17 -13 -25 -14 -18 0 20 20 55 44 74 20 17 9 18 -241 18 l-263 0 0 -180z
m815 161 c-29 -6 -30 -8 -33 -72 -3 -77 -2 -79 108 -79 109 0 110 1 110 81 l0
68 -32 4 c-18 2 5 4 52 4 47 0 76 -2 65 -4 -11 -3 -23 -10 -27 -17 -10 -14
-10 -278 0 -292 4 -7 16 -14 27 -17 11 -2 -18 -5 -65 -5 -49 0 -72 3 -55 7 30
6 30 6 33 84 l3 77 -111 0 -111 0 3 -77 c3 -78 3 -78 33 -84 17 -4 -6 -7 -55
-6 -47 0 -75 2 -63 4 30 6 35 37 31 193 -3 123 -3 124 -28 131 -14 4 11 7 60
7 50 0 73 -3 55 -7z m954 -6 c33 -16 41 -33 41 -80 0 -34 -24 -72 -50 -77 -8
-2 -21 -9 -28 -16 -8 -7 -18 -9 -24 -6 -6 4 -3 11 8 17 51 26 61 101 19 142
-28 29 -79 34 -89 9 -8 -20 -8 -252 0 -281 4 -14 16 -23 33 -26 14 -2 -14 -4
-64 -4 -49 0 -75 2 -57 4 l32 4 0 159 0 159 -32 4 c-18 2 16 5 75 5 78 2 116
-2 136 -13z m-1285 -101 c3 -8 2 -12 -4 -9 -6 3 -10 10 -10 16 0 14 7 11 14
-7z m-345 -79 c0 -5 -6 1 -14 15 -8 14 -14 30 -14 35 0 6 6 -1 14 -15 8 -14
14 -29 14 -35z m431 -2 c0 -7 -58 36 -66 49 -4 7 9 -1 29 -16 20 -16 37 -30
37 -33z m1113 0 c-7 -2 -19 -2 -25 0 -7 3 -2 5 12 5 14 0 19 -2 13 -5z m-1082
-20 c13 -16 12 -17 -3 -4 -10 7 -18 15 -18 17 0 8 8 3 21 -13z m-422 -68 c0
-5 -6 1 -14 15 -8 14 -14 30 -14 35 0 6 6 -1 14 -15 8 -14 14 -29 14 -35z
m226 -25 c0 -18 -6 -26 -23 -28 -13 -2 -25 3 -28 12 -10 26 4 48 28 44 17 -2
23 -10 23 -28z"/>
<path d="M744 180 c0 -91 2 -128 3 -82 2 45 2 119 0 165 -1 45 -3 8 -3 -83z"/>
<path d="M1014 180 c0 -91 2 -128 3 -82 2 45 2 119 0 165 -1 45 -3 8 -3 -83z"/>
<path d="M1600 180 c0 -100 4 -160 10 -160 6 0 10 60 10 160 0 100 -4 160 -10
160 -6 0 -10 -60 -10 -160z"/>
<path d="M1749 314 c23 -29 27 -83 10 -117 -11 -21 -11 -21 7 -4 25 24 24 99
-1 127 -27 30 -40 24 -16 -6z"/>
<path d="M364 49 c-3 -6 -1 -16 5 -22 8 -8 11 -5 11 11 0 24 -5 28 -16 11z"/>
<path d="M1253 333 c-42 -21 -73 -84 -73 -146 0 -118 79 -189 177 -156 21 7
39 10 39 8 4 -10 48 40 60 68 26 60 9 176 -28 199 -5 4 -2 -9 8 -27 24 -46 24
-143 0 -187 -23 -43 -31 -36 -10 8 24 48 21 142 -6 186 -22 35 -75 65 -114 63
-11 0 -36 -8 -53 -16z"/>
<path d="M1171 283 c-44 -53 -50 -110 -20 -170 13 -25 35 -52 49 -60 18 -11
20 -11 9 -1 -71 59 -79 179 -17 246 12 12 19 22 15 22 -3 0 -19 -17 -36 -37z"/>
</g>
</svg>
